PathFileType	4	(X/Y/Z)	C:\Users\WrightLab\Desktop\Jo\P1_boxCal5.trc
DataRate	CameraRate	NumFrames	NumMarkers	Units	OrigDataRate	OrigDataStartFrame	OrigNumFrames
100.00	100.00	       18	19	mm	100.00	611	       976
Frame#	Time	Headset_Front			Headset_Back			Headset_Left			Headset_Right			Left_Shoulder			Right_Shoulder			Sternum			C7			Left Elbow			Right Elbow			Left Wrist			Right Wrist			Left ASIS			Right ASIS			S2			Left Knee			Right Knee			Left Ankle			Right Ankle			
		X1	Y1	Z1	X2	Y2	Z2	X3	Y3	Z3	X4	Y4	Z4	X5	Y5	Z5	X6	Y6	Z6	X7	Y7	Z7	X8	Y8	Z8	X9	Y9	Z9	X10	Y10	Z10	X11	Y11	Z11	X12	Y12	Z12	X13	Y13	Z13	X14	Y14	Z14	X15	Y15	Z15	X16	Y16	Z16	X17	Y17	Z17	X18	Y18	Z18	X19	Y19	Z19	

611	6.100				-167.42732	910.72986	-1652.04797				-91.58263	957.97205	-1430.41626				-679.34723	962.73309	-1454.52283										-419.54016	868.65802	-1354.58643	-540.46979	942.88403	-1234.76367				-524.39984	415.89368	-1363.02710				-581.23584	53.61023	-1391.39490				-576.86853	1228.66760	-1474.83862	-245.59225	863.66913	-1447.08142	-254.89754	1222.44421	-1677.31470	
612	6.110				-161.29404	911.77087	-1651.62085				-88.96038	958.85791	-1428.75305	-281.13031	1233.95117	-1076.47717	-675.82239	961.37280	-1457.29187										-417.43546	869.51190	-1354.60071	-538.48389	942.25342	-1236.39258				-522.03455	414.64325	-1368.21814				-581.07336	54.19288	-1391.02234				-573.60876	1227.75623	-1476.39771	-241.70113	863.96338	-1447.90564	-249.60599	1222.91602	-1676.24683	
613	6.120				-155.06459	912.80408	-1650.66357				-85.26900	959.04443	-1426.50708				-671.39337	961.34528	-1463.96362										-413.06311	867.96716	-1361.79211	-535.90845	939.69501	-1246.42871				-517.81531	414.70172	-1371.43799				-581.04718	55.88390	-1392.91736				-569.62280	1228.14746	-1480.95117	-237.75685	864.33246	-1448.71863	-243.91327	1224.46143	-1677.36829	
614	6.130				-149.07837	914.43091	-1650.83264				-82.17915	960.00287	-1425.18799	-272.23560	1235.52332	-1073.91235	-666.77228	961.22778	-1469.45715										-410.83023	869.54285	-1359.17114	-532.90100	940.86072	-1245.56775				-513.66095	414.62735	-1375.27307				-578.78778	57.86381	-1391.30615							-234.43324	864.97473	-1449.71741	-237.69374	1225.90283	-1678.36951	
615	6.140				-143.03889	915.44617	-1650.06299				-79.71078	960.82965	-1423.70190				-661.62457	962.28723	-1477.41833										-406.71628	867.78510	-1367.08838	-530.17493	939.04028	-1249.78516				-511.54831	413.97992	-1376.03394				-577.33319	59.56913	-1392.34668				-562.42963	1228.68274	-1487.87573	-229.98405	865.73322	-1451.21313	-231.78003	1226.33240	-1676.90576	
616	6.150				-137.17693	916.72137	-1649.81140				-76.31634	961.46954	-1422.50952	-262.80151	1236.97791	-1071.64490	-657.65723	962.57721	-1483.29736										-405.61255	868.85577	-1366.22131	-528.33459	938.66687	-1254.41333				-506.88937	413.11316	-1377.70496				-577.14172	60.62244	-1393.27478				-558.63196	1228.40210	-1489.97742	-225.53447	865.83936	-1453.56348	-225.96773	1226.76599	-1675.45386	
617	6.160				-131.34251	918.04535	-1649.85547				-73.14761	962.04285	-1421.12988				-654.72003	959.94012	-1482.04236										-402.09387	867.59021	-1374.05164	-526.45654	936.03986	-1262.28174				-503.96970	412.55005	-1380.76868				-576.44525	61.38069	-1392.42615				-554.44800	1229.33533	-1494.70740	-222.82053	866.30475	-1453.44873	-221.13535	1229.84277	-1679.42090	
618	6.170				-125.44639	918.94525	-1649.07214				-71.85911	962.80273	-1418.48511	-168.56815	413.39249	-1591.35657	-649.34454	961.55762	-1491.05103										-399.49466	870.52301	-1369.80371	-524.30963	935.51025	-1268.16455				-501.27139	411.97528	-1385.14185				-575.10809	62.57588	-1391.37463				-551.00189	1229.92822	-1498.06335	-218.74518	866.43555	-1455.18115	-215.88187	1230.15881	-1677.65576	
619	6.180				-119.81947	919.85425	-1648.98547				-66.77269	964.01648	-1419.96704				-645.47858	962.52954	-1497.61316										-395.59708	868.68658	-1380.34570	-521.54645	934.75201	-1269.91809				-495.32178	412.01675	-1385.43225				-574.83667	63.67850	-1396.11243				-546.91626	1230.09363	-1500.93018	-215.64146	867.15680	-1457.84790	-210.23430	1230.54688	-1676.45947	
620	6.190				-114.21481	920.82373	-1648.71582				-63.74568	964.83856	-1419.12720	-146.34473	726.37061	284.57257	-641.27740	963.23743	-1503.07275										-395.02863	869.66229	-1377.50415	-518.01849	934.23059	-1272.00061				-493.11545	413.28302	-1390.41516				-574.73828	63.90506	-1396.00427				-543.41107	1229.93567	-1502.44153	-212.30495	867.71527	-1459.69849	-204.20729	1230.26147	-1674.15137	
621	6.200				-108.71664	921.75000	-1648.55469				-61.39444	965.33966	-1418.14600				-637.57660	963.09625	-1506.78296										-392.06998	868.08441	-1384.62195	-515.18481	933.62177	-1276.26428				-490.38928	413.24191	-1393.76013				-573.85425	65.95240	-1397.95789				-539.92950	1230.22925	-1505.16296	-209.49406	867.07501	-1459.77722	-199.21581	1231.47900	-1675.02502	
622	6.210				-103.44711	922.47864	-1648.23926				-57.57890	965.89966	-1417.76477	-155.72792	414.03519	-1598.11450	-634.29944	963.10095	-1510.94055										-390.29327	867.82562	-1386.85217	-513.40430	931.75110	-1281.83093				-487.93909	412.92639	-1392.73779				-573.19525	67.53865	-1398.05505				-536.38617	1231.60693	-1510.12756	-206.18636	867.60938	-1462.06213	-193.98177	1232.18408	-1674.90918	
623	6.220				-98.28992	923.27576	-1648.16492				-53.95745	966.15277	-1417.01184				-630.95990	963.34082	-1515.18689										-389.37595	868.53638	-1386.46375	-511.13269	931.26282	-1288.05713				-482.72495	414.20438	-1390.91272				-572.16357	70.40443	-1399.31213				-533.09503	1231.85193	-1512.50732	-204.43811	867.17639	-1461.90173	-189.43802	1233.75916	-1676.72705	
624	6.230				-92.82857	918.46521	-1641.18567				-50.92385	966.56824	-1416.12805	-418.29669	1021.14392	-2008.74988	-627.14209	964.07129	-1519.90210										-386.47232	866.61713	-1394.88477	-508.60391	930.25464	-1295.30200				-482.00693	413.92062	-1398.12256				-570.31348	70.88573	-1399.62146				-529.44104	1232.49500	-1516.22571	-202.68311	864.76501	-1472.64172	-184.18758	1234.03101	-1676.09949	
625	6.240							-148.13976	413.52710	-1602.31775	-47.63422	966.43683	-1415.19092				-623.94232	965.03772	-1525.12537										-384.74268	866.70294	-1397.03870	-506.93045	930.91962	-1296.43018				-478.04703	415.77600	-1398.02441				-568.40564	73.10591	-1401.52063				-525.91254	1232.93494	-1519.33984	-200.41687	866.19556	-1466.64502	-179.75308	1233.95276	-1674.41345	
626	6.250							-145.29335	413.22668	-1604.05200	-44.88617	967.07166	-1415.10925	-381.64136	280.28064	-827.41803	-620.96460	965.32635	-1529.23071										-384.05640	868.29236	-1395.04456	-504.77762	930.83899	-1299.10120				-476.01044	417.28934	-1399.16565				-567.14319	75.12960	-1400.12134	-154.65289	54.99654	-1672.61206	-522.47943	1233.43604	-1522.46497				-175.22084	1234.36841	-1673.93726	
627	6.260							-142.15189	413.52396	-1606.93176	-43.79748	966.27850	-1413.82813				-618.08380	965.26904	-1532.11523										-383.04382	867.95953	-1396.76721	-503.53494	932.01135	-1297.31335				-472.27032	418.12540	-1402.27258				-565.90552	77.12570	-1401.96997				-519.70471	1233.27551	-1523.56726	-342.61121	1105.57874	-757.56262				
628	6.270							-141.01537	413.53854	-1608.07092	-41.39799	966.02374	-1412.44067	-402.31140	1020.21429	-2013.62439	-614.84796	965.74799	-1535.89514										-380.44199	865.90936	-1405.86316	-501.49838	931.95911	-1299.99219				-470.21310	420.16354	-1401.49475				-564.20288	78.51712	-1403.70959	-194.02559	866.23218	-1465.91809	-516.27014	1233.19507	-1525.34436							
